<svg width="25" height="25" viewBox="0 0 25 25" fill="none" xmlns="http://www.w3.org/2000/svg">
<path d="M10.2768 11.65H7.6268C6.9968 11.65 6.48682 12.16 6.48682 12.79V17.91H10.2768V11.65V11.65Z" stroke="black" stroke-width="1.5" stroke-miterlimit="10" stroke-linecap="round" stroke-linejoin="round"/>
<path d="M12.9281 7.09998H11.4081C10.7781 7.09998 10.2681 7.60999 10.2681 8.23999V17.9H14.0581V8.23999C14.0581 7.60999 13.5581 7.09998 12.9281 7.09998Z" stroke="black" stroke-width="1.5" stroke-miterlimit="10" stroke-linecap="round" stroke-linejoin="round"/>
<path d="M16.7149 13.35H14.0649V17.9H17.8549V14.49C17.8449 13.86 17.3349 13.35 16.7149 13.35Z" stroke="black" stroke-width="1.5" stroke-miterlimit="10" stroke-linecap="round" stroke-linejoin="round"/>
<path d="M9.16675 22.5H15.1667C20.1667 22.5 22.1667 20.5 22.1667 15.5V9.5C22.1667 4.5 20.1667 2.5 15.1667 2.5H9.16675C4.16675 2.5 2.16675 4.5 2.16675 9.5V15.5C2.16675 20.5 4.16675 22.5 9.16675 22.5Z" stroke="black" stroke-width="1.5" stroke-linecap="round" stroke-linejoin="round"/>
</svg>
