<svg width="25" height="25" viewBox="0 0 25 25" fill="none" xmlns="http://www.w3.org/2000/svg">
<path d="M3.83301 9.60998V15.38C3.83301 17.5 3.83301 17.5 5.83301 18.85L11.333 22.03C12.163 22.51 13.513 22.51 14.333 22.03L19.833 18.85C21.833 17.5 21.833 17.5 21.833 15.39V9.60998C21.833 7.49998 21.833 7.49999 19.833 6.14999L14.333 2.96999C13.513 2.48999 12.163 2.48999 11.333 2.96999L5.83301 6.14999C3.83301 7.49999 3.83301 7.49998 3.83301 9.60998Z" stroke="black" stroke-width="1.5" stroke-linecap="round" stroke-linejoin="round"/>
<path d="M12.833 15.5C14.4899 15.5 15.833 14.1569 15.833 12.5C15.833 10.8431 14.4899 9.5 12.833 9.5C11.1762 9.5 9.83301 10.8431 9.83301 12.5C9.83301 14.1569 11.1762 15.5 12.833 15.5Z" stroke="black" stroke-width="1.5" stroke-linecap="round" stroke-linejoin="round"/>
</svg>
